<?xml version="1.0" encoding="UTF-8"?>
<svg xmlns="http://www.w3.org/2000/svg" xmlns:xlink="http://www.w3.org/1999/xlink" width="50%" height="50%" viewBox="0 0 581 581">
    <script>
        function activate(n){
            let myCircNum = document.getElementById(`circ-num-${n}`);
            let myCirc = document.getElementById(`circ${n}`);
            myCircNum.setAttribute('transform-origin',`${myCirc.getAttribute('cx')} ${myCirc.getAttribute('cy')}`);
            myCircNum.setAttribute('transform','scale(1.2)');



        }
        function deactivate(n){
            let myCircNum = document.getElementById(`circ-num-${n}`);
            myCircNum.setAttribute('transform','');
        }
    </script>




    <defs>
        <style>
            .cls-1,.cls-2{fill:none;}.cls-1,.cls-3,.cls-4,.cls-5,.cls-6,.cls-7{stroke-miterlimit:10;}.cls-1,.cls-5,.cls-6,.cls-7{stroke:#46454b;}.cls-8{fill:#5da4c0;}.cls-9{fill:#628068;}.cls-10{fill:#9f7573;}.cls-11{fill:#9ece95;}.cls-12,.cls-13{fill:#3051ff;}.cls-2{stroke:#85b5ff;stroke-linecap:round;stroke-linejoin:round;stroke-width:3.5px;}.cls-14{fill:#223647;}.cls-15,.cls-5{fill:#fcc624;}.cls-15,.cls-13{font-family:SnapITC-Regular, 'Snap ITC';font-size:36px;}.cls-16{fill:#749962;}.cls-17{fill:#968886;}.cls-18{fill:#c4c0cb;}.cls-19{fill:#f16552;}.cls-20{fill:#85b5ff;}.cls-21{fill:#5c8056;}.cls-22,.cls-7{fill:#46454b;}.cls-3{stroke:#3051ff;}.cls-3,.cls-4{fill:#fff;stroke-width:5px;}.cls-4{stroke:#fcc624;}.cls-23{fill:#315a7e;}.cls-24{fill:#aebac5;}.cls-25{fill:#364739;}.cls-26{fill:#999;}.cls-27{fill:#5a484d;}.cls-28{fill:#fbffc0;}.cls-29{fill:#a1998e;}.cls-6{fill:#ac7840;}.cls-30{fill:#804b44;}.cls-31{fill:#e6e6de;}.cls-32{fill:#87764d;}.cls-33{fill:#db759f;}.cls-34{fill:#26272a;}
        </style>
    </defs>
    <g id="Mountain"><path class="cls-23" d="M210,231l-27-13-7,2-8.98-2-14.02,29-14.48,43.5-36.52,83.5-5,4-62,128v7.19l7,7.81h62.84l36.16-8,63-3h56l55,8,16,6,157-9,18,5,12-3,21,3,13-6-96.9-223.5s-12.1-22.5-20.1-23.5-23,1-23,1l-33-63s-1-11-8-19-29-11-29-11l-14-25-14-6-3-13-10-3-11.5-6.01-11.5,4.15-33,56.86-22,14-13,34Z"/><path class="cls-16" d="M106.31,521.41l6.96,8.74c.15,.18,.35,.31,.58,.34,6.27,1,93.75,15.01,96.65,15.01s38.08-3.57,39.92-3.76c.06,0,.1-.01,.15-.03,1.4-.4,22.11-6.34,27.43-8.77,4.54-2.07,43.22-6.83,56.53-8.42,1.01-.12,1.14-1.54,.16-1.84l-7.57-2.3s-49.62-12.56-54.62-11.3-79.06-.09-79.06-.09h-56.83c-.11,0-.22,.02-.33,.06l-29.56,10.88c-.6,.22-.81,.97-.41,1.47Z"/></g>
    <g id="Highlights"><path class="cls-8" d="M176,220l-9-2-14,25-20.02,60-32.98,64-59,127,19.42-27,18.4-26,41.9-32,21.46,11h15.33l1.53-4.5-22.48-41-5.11-3,44.46-99.28,4.6-18.72s-1.6-2.76-3.07-18c-.43-4.5,.57-9.5,.57-9.5l-2-6Z"/><polygon class="cls-8" points="249 380 236.96 380 208 383.08 206 419 214.17 419 230 396.42 249 392.79 259 385.13 249 380"/><path class="cls-8" d="M391.89,453h5.11s4,10-4,15-9,22-9,22l-8.18,18h-9.82l-9.35-14h-3.63l-9.03-9,6.5-2.5,7.13-2s4.87-12,30.87-21l3.39-6.5Z"/><path class="cls-8" d="M335,388h-24.69l-12.31,6-51,89v8.69h15.31l15.69-5.49,4-4.2h5s9-11,10-11,18-12,18-12l8-33,4-12,6-6-16.5-12.5,1-2,17-4,.5-1.5Z"/><polygon class="cls-8" points="360.5 412.5 352.5 411.5 360.5 383.57 364.71 381 382.5 375.5 386.5 369.5 383.5 361.5 406.5 339.5 410.5 336.5 413.5 340.5 410.5 347.5 410.5 354.5 379.5 383.5 372.5 391.5 360.5 412.5"/><polygon class="cls-8" points="444.5 347.5 440.5 335.5 444.5 333.51 460.5 332.5 444.5 347.5"/><polygon class="cls-8" points="459.34 419 454.5 423.5 439.5 445.5 426.5 466.5 426.5 475.46 456.37 475.46 457.5 468.5 474.43 453 493.5 448.5 475.5 421.5 470.5 419.5 459.34 419"/><polygon class="cls-8" points="344 340 361.97 340 387 314 384 298 406.31 291.5 421 274 419 268 405.4 268 375 298 344 340"/><polygon class="cls-8" points="223 220 211 232 228 246 235 239 223 220"/><path class="cls-8" d="M278,125.97l-52,75.03v2.69s26,2.31,27,.31,16-34,16-34l47-14v-3.51l-22.5,6.01,2-10h9l-1-7-13.07-15.53h-12.43Z"/><path class="cls-8" d="M354,194h-39.8l-52.2,60.64s20,20.55,20,21.58-14,18.5-14,18.5l.26,9.25,6.74-2.06,3,3.26h19.06l7.77-14.05,9.67-29.8-4.19-11.73,2.19-2.66h27l20-24.67v-8.71l3-1.57-3-7.19-7-.16,4-7.03-2.5-3.6Z"/><polygon class="cls-16" points="145.06 490.87 153.06 481.87 156.77 481.87 156.77 486.37 162.94 486.37 160.2 490.87 166.83 490.87 166.83 497.33 174.06 498.87 184.66 491.87 187.06 493.87 180.56 500.53 188.31 500.53 185.06 507.87 194.94 507.87 201.06 510.87 199.06 514.87 172.06 511.87 157.91 503.89 143.97 491.87 145.06 490.87"/></g>
    <g id="Paths"><polygon class="cls-28" points="153 516 199.69 516 148 491 144 484.83 144 461.86 126 462 126 494 153 516"/><path class="cls-28" d="M126,458.43c0-1.43,1.69-11.2,1.69-11.2l26.74-7.39s19.74-8.19,26.07-20.84c2.5-5-.5-16-.5-16l-1-7-.23-15,17.23-12,13,11-9,20s4.51,17-2,25l-2,2-35,28-15.14,3.43h-19.86Z"/><polygon class="cls-28" points="203.5 370.5 213 384 236.5 380.5 258.5 366.5 317.5 367.5 316.5 353.5 289.5 356.14 252.71 353.5 226.43 369 210.5 362.5 203.5 370.5"/><path class="cls-28" d="M323,355l1.14,13.75s36.86-8.75,38.86-8.75,56-32,56-32l6-11-18-2-12.5,13.5-58,23-13.5,3.5Z"/><path class="cls-28" d="M406.5,310.5l18.5,1.53v-13.71l-9.25-4.11-38.25-6.7s-41,2-42,2-10-11-10-11l-22,2-6-13-10,9,6.81,15,23.19-1.74,15,10.74,34-4,23,7,17,7Z"/><path class="cls-28" d="M284.5,272.5l9-11s-8-7.51-9-7.76-29.27,0-29.27,0l-11.73-42.24,10-13-7-6-21,4,13,61,15,5,20,1,11,9Z"/><path class="cls-28" d="M249.5,188.5l8,7s14-18,15-19,49-13,49-13l6-9s-7-5-8-4-7,6-7,6l-44,13-13,16-6,3Z"/><path class="cls-16" d="M132.59,514.26l-6-13-2-5s4.4-10.63,5.2-7.31,2.8,6.86,2.8,6.86l5-2.54,6,6,10-3-.94,5.02h3.2l-3.26,5.98,8,3,5-2h4l-5.29,6-.71,4h-29.46l-1.54-4Z"/></g><g id="Thingies"><polygon class="cls-29" points="295 134 302.34 134 301.27 129.4 295 131.7 295 134"/><polygon class="cls-29" points="297 138 297 141.06 306.66 141.06 304.83 135.8 297 138"/><polygon class="cls-29" points="298.67 143.8 297 147 297.83 148.83 306.66 148.83 308 148.83 308 145.17 301.27 142.66 298.67 143.8"/><polygon class="cls-14" points="202.5 522.5 208.6 522.2 208.6 512.26 222.5 510.5 222.5 523.23 226.56 523.23 226.56 491.23 210.66 491.23 204.5 488.5 202.66 488.5 202.5 522.5"/><polygon class="cls-24" points="209.14 507.65 221.08 506.52 221.08 495.08 209.14 495.08 209.14 507.65"/><path class="cls-22" d="M242,181.15l-.36-10h11.33l-14.33-11h-14.81l-10.19,12h8l-.21,9h-9.79v5.7l7,4.3,1,8,6,3,5-6,13-1,11-12-12.64-2Zm-7.36,0h-7v-10h7v10Z"/><path class="cls-30" d="M276.14,124.85v-8.91l-2.5,.21s1-2.97,2.5-3.99,11.5-3.77,11.5-3.77v-7.89l6-24.36,6.7,24.35-1.7,2.65,1.7,26.16-13.35-3.43-9.35,1.27-1.5-2.3Z"/><path class="cls-33" d="M198.74,504.01c-.05-.31-.19-.6-.32-.88-.14-.3-.36-.56-.56-.81-.12-.15-.26-.29-.41-.41-.29-.24-.59-.47-.93-.64-.34-.17-.7-.34-1.08-.42-.74-.15-1.52-.16-2.24,.09-.75,.25-1.37,.63-1.95,1.15-.3,.27-.55,.61-.79,.94-.15,.21-.27,.43-.38,.66-.17,.38-.33,.74-.4,1.15-.07,.41-.13,.83-.08,1.25-.01,.28,.05,.53,.17,.77,.02,.07,.06,.13,.09,.19-.04,.02-.09,.03-.13,.06-.41,.24-.81,.72-.92,1.2-.25,1.08,.33,2.13,1.4,2.46,1.04,.32,2.07,.08,3.11-.08,.07,0,.14-.02,.21-.02,.26,.29,.57,.51,.96,.62,.48,.13,1.12,.07,1.54-.2,.43-.28,.8-.69,.92-1.2,.11-.5,.1-1.1-.2-1.54-.08-.12-.16-.23-.25-.34,.24-.09,.48-.19,.69-.33,.25-.17,.52-.36,.72-.59,.2-.23,.4-.47,.53-.75,.23-.51,.31-.81,.37-1.37,.03-.31-.02-.64-.08-.94Z"/><path class="cls-33" d="M180.33,496.81c-.12-.37-.34-.66-.61-.91-.02-.03-.03-.05-.05-.08,.03,.02,.06,.04,.09,.07-.05-.04-.08-.09-.13-.13-.21-.33-.39-.67-.6-.99-.19-.29-.39-.58-.65-.8-.37-.31-.59-.46-1.06-.61-.27-.09-.57-.12-.85-.13-.97-.03-1.93,.44-2.6,1.12-.28,.29-.54,.62-.73,.97-.18,.34-.37,.74-.42,1.13-.02,.18-.05,.35-.07,.53-.01,.28,.05,.53,.17,.77,.15,.37,.44,.78,.82,.96,.28,.13,.57,.27,.87,.34,.32,.07,.66,.11,.99,.14,.25,.02,.51,.03,.77,.05,.08,.02,.15,.03,.23,.05,.38,.11,.82,.08,1.21-.05,.39,.14,.86,.15,1.23,.05,.46-.13,.97-.49,1.2-.92,.25-.46,.37-1.03,.2-1.54Z"/><path class="cls-33" d="M185.13,505.21c-.16-.5-.46-.91-.92-1.2-.72-.45-1.55-.66-2.39-.68-.39,0-.78,.02-1.16,0-.06-.01-.12-.02-.18-.04-.48-.15-1.11-.05-1.54,.2-.41,.24-.81,.72-.92,1.2-.12,.51-.09,1.09,.2,1.54,.29,.45,.68,.75,1.2,.92,.34,.11,.71,.15,1.06,.18,.19,.02,.38,.02,.56,.02,.27,0,.54-.01,.81,0,.08,.02,.16,.04,.24,.07,.03,.02,.07,.03,.1,.05,.43,.27,1.06,.34,1.54,.2,.46-.13,.97-.49,1.2-.92,.25-.46,.37-1.03,.2-1.54Z"/><path class="cls-33" d="M195.33,514.12c-.1-.34-.27-.63-.51-.88-.46-.56-1.23-.95-1.94-1.06-.49-.08-.98-.11-1.47-.15-.07-.01-.14-.03-.2-.05,0,0-.01-.01-.02-.02,0,0,0,.01,.01,.02h0c-.26-.29-.55-.5-.95-.61-.48-.13-1.12-.07-1.54,.2-.43,.28-.8,.69-.92,1.2-.05,.24-.08,.5-.06,.76-.18,.42-.24,.88-.11,1.34,.35,1.29,1.04,2.58,2.42,2.99,.56,.17,1.22,.14,1.77-.03,.47-.15,.93-.37,1.35-.62,.43-.25,.84-.53,1.26-.8,.54-.34,.87-.83,.95-1.46,.06-.27,.05-.53-.04-.8Z"/><path class="cls-33" d="M188.55,522.35c-.33-1.03-1.38-1.69-2.46-1.4-.45,.12-.9,.21-1.36,.28-.54,.06-1.09,.07-1.63,.02-.19-.04-.39-.07-.57-.13-1-.32-2.23,.38-2.46,1.4-.25,1.1,.33,2.11,1.4,2.46,.9,.29,1.9,.36,2.84,.3,.96-.06,1.92-.22,2.85-.47,.48-.13,.94-.49,1.2-.92,.25-.43,.36-1.06,.2-1.54Z"/><path class="cls-33" d="M157.17,512.85c-.09-.87-.22-1.72-.77-2.43-.2-.26-.41-.47-.71-.64-.39-.22-.73-.28-1.17-.32-.08,0-.16,0-.24,0-.69-.31-1.38-.67-2.12-.81-.65-.13-1.22-.05-1.74,.36-.49,.38-.8,.94-.79,1.57,0,.52,.1,1.01,.28,1.46-.2,.4-.29,.8-.32,1.26-.04,.67,.2,1.36,.51,1.94,.26,.48,.63,.94,1.05,1.29,.54,.44,1.14,.84,1.84,.96,.56,.09,.97,.12,1.54-.02,.33-.08,.67-.23,.95-.43,.47-.34,.79-.66,1.11-1.15,.21-.32,.4-.7,.49-1.07,.15-.63,.17-1.32,.1-1.97Z"/><path class="cls-33" d="M151.82,505.59c-.11-.33-.28-.63-.51-.88-.36-.39-.9-.55-1.41-.59-.78-.05-1.57-.04-2.35-.03-.51,0-1.05,.22-1.41,.59-.1,.1-.18,.21-.26,.34-.35,.09-.7,.26-.94,.52-.35,.38-.61,.88-.59,1.41,.02,.5,.18,1.08,.59,1.41,.42,.35,.68,.52,1.2,.69,.3,.1,.63,.13,.94,.14,.5,0,1.02-.1,1.5-.26,.82-.29,1.57-.7,2.34-1.08,.13-.1,.27-.21,.4-.31,.2-.18,.33-.4,.41-.64,.17-.4,.24-.88,.1-1.3Z"/><path class="cls-33" d="M143.75,500.24c-.21-.12-.43-.18-.65-.23-.01,0-.02,0-.04,0,.16-.1,.32-.19,.49-.26,.21-.07,.41-.17,.57-.32,.22-.14,.39-.33,.52-.56,.25-.43,.36-1.06,.2-1.54-.16-.48-.46-.95-.92-1.2-.45-.24-1.04-.39-1.54-.2-.51,.19-1.02,.4-1.47,.7-.4,.27-.79,.58-1.13,.92-.47,.49-.87,1.04-1.31,1.56,0,0,0,0-.01,0-.51,0-1.06,.23-1.41,.59-.35,.35-.61,.92-.59,1.41,.05,1.1,.88,1.99,2,2,.17,0,.33,.02,.49,.03,.51,.09,1.01,.22,1.51,.36,.76,.22,1.5,.37,2.28,.46,.47,.06,1.09-.26,1.41-.59,.35-.35,.61-.92,.59-1.41-.02-.52-.19-1.05-.59-1.41-.13-.1-.27-.21-.4-.31Z"/><path class="cls-33" d="M167.28,506.39c-.37-.48-.85-.7-1.44-.77-.36-.06-.7-.17-1.03-.31-.74-.33-1.46-.71-2.25-.93-1.1-.31-2.31-.29-3.39,.11-.5,.19-.92,.45-1.2,.92-.25,.43-.36,1.06-.2,1.54,.21,.65,.79,1.24,1.47,1.42,.69,1.42,2.23,2.33,3.77,2.54,.97,.13,1.89,0,2.78-.44,.92-.45,1.58-1.38,1.84-2.35,.17-.62,.03-1.24-.36-1.74Z"/><polygon class="cls-27" points="334.5 338.5 365.97 338.5 380.5 374.5 378.5 377.5 350.5 384.5 310.43 384.5 331.5 340.5 334.5 338.5"/><polygon class="cls-17" points="363.5 345.5 355.5 377.5 372.5 374.5 374.5 371.5 363.5 345.5"/><polygon class="cls-18" points="357.4 345.5 334.77 345.5 336.5 340.5 359.11 340.5 357.4 345.5"/><polygon class="cls-18" points="356.5 348.5 352.09 348.5 342.5 381.5 347.5 379.5 356.5 348.5"/><polygon class="cls-18" points="332.5 379.5 339.5 380.5 348.83 348.5 341.8 348.5 332.5 379.5"/><g><polygon class="cls-34" points="177.52 284.64 169.98 302.98 162.27 310.52 169.98 310.52 164.98 323.55 158.27 331.52 164.98 331.52 154.16 340.02 159.98 340.02 154.16 348.02 164.98 348.02 164.98 353.04 170.42 352.28 174.27 304.52 177.52 284.64"/><path class="cls-34" d="M236.91,327.32s-1.36-6.23,0-6.51c1.36-.29,7.36-1.29,7.36-1.29l-7.36-5.57,3.36-4.43-4.86-7.57,1.5-4.11-5.64-11.31-1.36,30.74-5.64,18.26-.92,11.46-5.62,14.04-42.82,1.5v14.5h42.47l19.53-13v-24l8.93,2.5s-5.29-5.4-8.93-15.2Z"/><polygon class="cls-34" points="170.42 352.28 174.91 351.66 170.42 352.28 170.42 352.28"/><path class="cls-25" d="M173.27,305.52c1.42-6.96,2.84-13.92,4.25-20.88l5.15-12.52,7.14,11.31,3.93-16.11,2.32-14.06,3.94,11.31,7.44,16.94,6.47-16.94,11.36,31.94,6-10-1.36,30.74-5.64,18.26-.92,11.46-5.62,14.04-42.82,1.5v-10.86l-4.49,.62"/></g><polygon class="cls-9" points="213.91 264.58 223.35 307.09 218.63 310.18 218.63 315.14 213.91 307.44 211.27 307.52 211.27 318.86 208.13 315.14 206.27 316.52 203.27 324.52 203.27 328.01 208.27 326.52 210.27 332.52 215.44 332.52 217.27 329.52 219.27 330.52 220.47 342.52 213.91 341.49 213.91 352.46 190.27 346.52 194 335 198.27 321.52 206.81 284.12 213.91 264.58"/><path class="cls-9" d="M196.27,252.52l7.1,19.72s-2.1,4.28-2.1,5.28-5.94,31-5.94,31l-8.06-20,3-3.94,6-32.06Z"/><polygon class="cls-9" points="182.67 272.12 186.27 282.52 182.67 282.52 184.47 317.72 184.47 327.78 177.27 334.52 175.27 346.52 170.42 352.28 164.98 353.04 164.98 348.02 154.16 348.02 159.98 340.02 154.16 340.02 164.98 331.52 158.27 331.52 164.98 323.55 169.98 310.52 162.27 310.52 169.98 302.98 182.67 272.12"/><polygon class="cls-11" points="182.67 272.12 169.98 302.98 162.27 310.52 169.98 310.52 164.98 323.55 158.27 331.52 167.5 327.34 177.52 297.86 174.69 298.56 178.66 288.29 182.67 272.12"/><polygon class="cls-11" points="162.84 337.63 162.84 333.2 154.16 340.02 162.84 337.63"/><polygon class="cls-11" points="204.12 288.58 198.37 298.29 203.82 294.92 197.29 307.14 193.58 312.87 199.27 310.35 203.86 303.12 212.06 289.03 214.06 264.24 204.12 288.58"/><polyline class="cls-11" points="196.06 253.26 192 265 189.57 270.54 191 271 187.27 278.26 192.04 275.12"/><polyline class="cls-11" points="192 275 194.89 270.54 196.27 252.52"/><polygon class="cls-26" points="288 102.73 290.29 101.73 297.09 102.15 298.62 128 288 125 278.26 125.87 278.58 115.78 288 113.24 288 102.73"/><polygon class="cls-31" points="289 103 293.77 104.42 294.5 108.09 294.5 123.37 292.5 125 289 124.81 289 115.33 289 103"/><polygon class="cls-31" points="279.5 116.5 280.4 116.8 282.5 117.5 282.5 122.8 281.83 125.2 278.5 125.5 278.5 122.46 279.5 116.5"/><polygon class="cls-19" points="289.84 100.49 292.94 100.49 295 87.29 292.59 82.04 288.92 99.36 289.84 100.49"/><path class="cls-19" d="M283,113.52v-2.28c0-.13-.11-.22-.24-.19l-4.68,.94c-.05,.01-.1,.04-.13,.08l-1.69,2.54c-.1,.15,.03,.34,.2,.31l6.38-1.2c.09-.02,.16-.1,.16-.19Z"/><path class="cls-32" d="M293.5,307.89l-1.24-6.07,2.29-13.26-12.34-2.04-4.2,25.51,4.5,11.47,5,18.38,2.81,12.67,14.52-14.52-11.33-32.13Zm-8.6-17.76l6.41,.5-1.1,6.5h-7.31l2-7Zm-2,9.49h6.63l-1.13,4.51h-6.5l1-4.51Zm-1,11.54l-.49-3.51,6.99-.63,1.13,4.98-5.63,2.13-2-2.97Zm2.49,8.5l-.49-3.53,6.31-2,3.19,6.63-6.5,2.37-2.51-3.47Zm3.01,5.78l6-2.31,1.84,2.31,1.66,3.69-7.37,2.37-2.13-6.06Zm3.91,15.56l-1.1-5.55v-.87l6.17-3.09s1.46,2.28,1.49,3.96c.03,1.67,2.03,4.67,2.03,4.67l-7.75,7.5-.84-6.62Z"/><g><path class="cls-10" d="M165.84,465.61h6.8l7.37-1.81,4.31-2.74h9.26l2.69-5.03h10.54s3.69-6.53,4.69-5.53,11.85-1.33,11.85-1.33l1.15-4.67,9-1v-1.64l6-1.36,3-4h3.34l4.66-5-.68-4.96,.68-2.06h6.79v-6.17h3.89l-3.67-4.81,3-3h9.59l2.41-3-5-2,1-2h9.5l-1.5-2-1-3,8.4-2.36,6.31-2.97-2.81-2.06v-2.29h12.5l2.6-3.33,18,1,3.53-1v-2.39l25.75-.14-43.19-1.5h-8.57l-.74,4.5h-15v6l-11,2v6l-8,1v7l-8.36,.37v7.89l-5.1,1.03v5.49l-4.54-.77-.74,7.39-6.26,2.61,1,4-7.86,.49-2.14,4.51-7.92-.06-3.08,7.06-15.5,.83v4.8h-13.75v5.14l-10.81-.69v3.09l-15.24,.34v3.77l-13.13,.34v5.05h15.98v-5.05Z"/><path class="cls-27" d="M324,381l.03,4.5-3.53,1-18-1-2.6,3.33h-12.5v2.29l2.81,2.06-6.31,2.97-8.4,2.36,1,3,1.5,2h-9.5l-1,2,5,2-2.41,3h-9.59l-3,3,3.67,4.81h-3.89v6.17h-6.79l-.68,2.06,.68,4.96-4.66,5h-3.34l-3,4-6,1.36v1.64l-9,1-1.15,4.67s-10.85,2.33-11.85,1.33-4.69,5.53-4.69,5.53h-10.54l-2.69,5.03h-9.26l-4.31,2.74-7.37,1.81h-6.8v5.05h-15.98v6.61h10.34l54.62-14.4,38.47-21.89,16-22,15-10,5.5-10.57,19.5-9.43h31.66l8.84-6-25.78-1.98Z"/></g><polygon class="cls-6" points="323 216.5 323 219.87 324.24 219.87 324.24 224.14 323 224.14 323 229.5 327.5 229.5 329.5 226.5 327.79 216.5 323 216.5"/>
    <g>
        <rect class="cls-1" x="317.88" y="219.87" width="6.36" height="4.27"/>
        <path class="cls-7" d="M348.38,152.37h-20.54l-4.83,5.81,7.37,3.19h5.81l-9.56,19.15-14.26,23.85-15,21-15,18-19,11h4.8l17.2-8,13-16,12-18,8-13-2,10-2,5,1,17h13l3-3-3-19-4-12-1.51-5.5,6.51-10.5s6-11,6-12,1.89,2.93,1.89,2.93l2.11-2.93,3.03-9.85,6.97-5.15-1-2Zm-18.88,74.13l-2,3h-11v-13h11.29l1.71,10Zm-4.16-19.89l2.16,7.89h-11.19l2.19-5.64,1-12,1.78-2.24,4.06,12Z"/><path class="cls-5" d="M316.5,216.5v13h11l2-3-1.71-10h-11.29Zm7.74,7.64h-6.36v-4.27h6.36v4.27Z"/></g><polygon class="cls-6" points="319.46 216.5 319.46 220 324.24 219.87 324.24 224.14 319.46 224.14 319.46 229.5 327.5 229.5 329.5 226.5 327.79 216.5 319.46 216.5"/><polygon class="cls-29" points="222.88 164.27 230.67 164.27 227.17 169.58 217.73 169.58 222.88 164.27"/><polygon class="cls-29" points="221.53 173.84 224.2 175.24 224.2 180.99 220.96 180.99 221.53 173.84"/><path class="cls-12" d="M448.37,519.35l-21.84-.31s-.05,0-.08,0l-2.22,.23c-.41,.04-.77-.28-.77-.69v-46.57c0-.16,.06-.32,.16-.45,.7-.83,3.47-4.09,4.34-4.96,.96-.96,17.63-31.49,18.92-33.86,.05-.1,.08-.2,.08-.31,.09-4.14,1.93-85.9,1.47-88.34-.44-2.31-2.7-17.27-3.04-19.57-.03-.19-.13-.36-.29-.47l-6.15-4.25c-.08-.05-.17-.09-.26-.11l-21.59-4.36c-.32-.07-.65,.11-.78,.41l-9.29,21.75c-.06,.14-.07,.29-.04,.43l2.66,11.52c.02,.1,.02,.2,0,.3-.38,1.75-3.97,18.46-4.08,20.35-.11,2,0,42.46,0,42.46l-.05,7.28c0,.17-.07,.34-.18,.46l-6.1,6.67c-.12,.13-.18,.3-.18,.47v89.43c0,.15-.05,.3-.14,.42l-1.35,1.78c-.14,.18-.36,.28-.58,.27l-15.72-.68s-.04,0-.06,0l-13.85,.68c-.11,0-.23,.04-.33,.1l-6.87,4.15c-.49,.3-.43,1.03,.11,1.24l12.61,4.93c.06,.02,.13,.04,.2,.05l21.87,1.78s.04,0,.06,0h42.45s.03,0,.04,0l15.36-.99c.08,0,.16-.02,.23-.05l9.34-3.97c.26-.11,.42-.36,.42-.64v-3.38c0-.34-.24-.62-.57-.68l-13.77-2.51s-.08-.01-.11-.01Zm-7.34-192.32l3.27,19.51s0,.08,0,.12v8.73c0,.16-.06,.32-.17,.45l-2.3,2.71c-.37,.44-1.08,.26-1.21-.29l-7.71-32.87c-.12-.52,.36-.97,.87-.83l6.74,1.92c.26,.07,.45,.29,.5,.55Zm-15.91,51.05l2.56-23.84c.08-.71,1.05-.86,1.33-.2l3.6,8.42c.04,.09,.06,.18,.06,.27v41.51c0,.05,0,.11-.02,.16l-5.25,22.22c-.18,.75-1.26,.7-1.36-.06l-.9-6.42s0-.06,0-.1v-41.89s0-.05,0-.07Zm-9.64,104.38s0,.05,0,.07c-.09,.7-1.52,12.12-1.67,13.65-.13,1.3-3.53,1.27-4.73,1.22-.26-.01-.48-.16-.59-.39l-4.45-9.26c-.05-.09-.07-.2-.07-.3l-.1-56.97c0-.16,.05-.31,.15-.43l2.15-2.74c.07-.09,.11-.19,.14-.3l2.26-11.63c.06-.33,.35-.56,.68-.56h7.29c.39,0,.7,.32,.69,.71l-1.74,66.94Zm4.48-118.84c-1,1.02,0,22.98,0,28.98,0,4.32-2.82,10.46-4.4,13.56-.31,.61-1.22,.44-1.31-.24l-3.36-27.21c0-.07,0-.15,0-.22,.27-1.39,3.06-15.94,3.55-21.15,.06-.61,.81-.85,1.21-.39,1.82,2.07,5.02,5.93,4.3,6.67Z"/><path class="cls-12" d="M334,535.52l6.27,5.57c.16,.23,.41,.39,.7,.46l10.99,2.6s.05,.01,.07,.02l3.67,1.09s12.26,3.2,15.48,2.97,17.78,.1,18.8,.12c.04,0,.08,0,.12,0l39.27-2.87,8.45-.62,13.94-1.02c.25-.02,.49-.11,.68-.26l2.93-2.27c.23-.17,.51-.27,.8-.26l9.98,.2c.23,0,.45-.05,.65-.16h0c1.06-.59,.62-2.1-.61-2.09l-11.55,.13c-.09,0-.18,.01-.26,.03l-12.67,2.79s-.06,.01-.09,.02c-1.07,.16-21.36,3.12-49.2,2.22-26.93-.88-48.9-11.17-51.38-12.37-.16-.08-5.85-6.28-6.03-6.29l-6,.48c-.99-.03,4.45,8.76,5,9.52Z"/><path class="cls-12" d="M468.99,538.21l5.46,.78s.06,0,.09,0l6.59-.97c.09-.01,.17-.07,.23-.14l1.18-1.8c.07-.1,.07-.24,0-.35l-1.96-3.26c-.11-.19-.01-.43,.2-.48l3.71-.98h-8.5v.99c0,.06,.02,.12,.05,.18l1.57,2.46c.12,.18,.02,.43-.19,.49l-2.78,.78-5.71,1.67c-.34,.1-.3,.59,.05,.64Z"/><path class="cls-12" d="M349.8,527.27l5.42,5.07c.12,.12,.09,.32-.07,.38-1.09,.44-3.28,2.05,15.85,3.77,22.32,2,53.5,.03,53.99,0,0,0,0,0,.01,0,.32,.02,15.43,.8,28.39-1.09,10.26-1.49,13.1-3.65,13.85-4.52,.13-.15,.02-.38-.18-.38h-4.22s-.03,0-.05,0l-8.49,1.81s-12.3,2.99-42.06,3.09c-29.28,.1-48.07-2.98-48.67-3.08-.02,0-.02,0-.04-.01l-6.4-2.43c-.21-.08-.2-.38,.02-.44l2.89-.82c.18-.05,.23-.29,.08-.4l-3.59-2.87s-.09-.05-.14-.05h-9.13c-.24,0-.32,.31-.12,.43l2.59,1.5s.03,.02,.04,.03Z"/><path class="cls-12" d="M489.5,533.5s14.31-7.88,1.16-12.04c-10.92-3.45-.73-5.02,3.06-5.46,.54-.06,.92,.61,.65,1.16l-.58,1.18c-.16,.33-.1,.75,.16,.99l4.95,4.69s2.81,3.7-2.29,6.01-7.1,3.47-7.1,3.47Z"/><path class="cls-20" d="M415.48,349.74l-1.57,11.76,5.61,7.25,.44,23.84-4.48,9.73v53.79l-1.57-12.19-1.91,4.09v39.57s0,8.59,1.5,7.51,2.48-32.09,2.48-32.09l3.02-17,2-6.16,1.09-74.84-6.61-15.26Z"/><polygon class="cls-20" points="432.66 391.57 432.64 404.4 425.11 431.57 426.5 436.83 432.66 429.13 436.03 406.52 436 387 432.66 391.57"/><line class="cls-21" x1="362.03" y1="525.52" x2="359.11" y2="517.94"/>
        <path class="cls-2" d="M366.8,527.64c-3.68-6.87-7.55-14.87-6-16,.23-.17,.73-.29,3,1,2.46,1.4,6.3,4.05,10,9"/>
        <path class="cls-2" d="M378.2,520.57c-.2-.27-1.87-2.57-2.23-6.87-.27-3.18,.35-5.45,.52-6.04"/>
        <path class="cls-2" d="M381.8,508.64c.67,2.33,1.33,4.67,2,7"/>
        <path class="cls-2" d="M390.8,520.64c-1.43-1.28-3.1-3.25-4-6-.59-1.82-1.42-4.38,0-6,.94-1.07,2.81-1.67,4-1,1.66,.94,.75,3.66,2,7,1.05,2.8,3.12,4.71,5,6"/>
        <path class="cls-2" d="M436,515.86c.68-2.19,1.52-4.07,2.41-4.05,1.85,.03,2.78,8.15,3.62,8.11,.88-.04,.21-8.85,1.21-8.92,1.22-.09,3.79,13.04,4.83,12.97,.76-.05-.68-11.3,0-11.35,.58-.04,1.86,8.11,3.62,8.11,1.57,0,2.52-6.54,3.62-6.48,1.07,.05,.66,6.29,2.41,6.48,1.62,.18,3.4-5.02,4.83-4.86,1.28,.14,2.61,4.67,0,8.11-4.24,5.58-16.94,5.68-18.1,5.67"/>
    </g>
    <g id="Circles">

        <a xlink:href="/games/2" target="_top">
            <g id="circ-num-2" onmouseover="activate(2)" onmouseout="deactivate(2)">
                <circle id="circ2"  class="cls-3" cx="201.31" cy="370.54" r="25.25"/>
                <text class="cls-13" transform="translate(188.13 382.55)"><tspan x="0" y="0">2</tspan></text>
            </g>
        </a>


        <a xlink:href="/games/8" target="_top">
            <g id="circ-num-8" onmouseover="activate(8)" onmouseout="deactivate(8)" >
                <circle id="circ8" class="cls-3" cx="261.25" cy="77.25" r="25.25"/>
                <text class="cls-13" transform="translate(246.35 89.66)"><tspan x="0" y="0">8</tspan></text>
            </g>
        </a>


        <a xlink:href="/games/4" target="_top">
            <g id="circ-num-4" onmouseover="activate(4)" onmouseout="deactivate(4)">
                <circle id="circ4" class="cls-3" cx="417.31" cy="313.54" r="25.25"/>
                <text class="cls-13" transform="translate(401.12 324.55)"><tspan x="0" y="0">4</tspan></text>
            </g>
        </a>

        <a xlink:href="/games/6" target="_top">
            <g id="circ-num-6" onmouseover="activate(6)" onmouseout="deactivate(6)">
                <circle id="circ6" class="cls-3" cx="251.31" cy="203.54" r="25.25"/>
                <text class="cls-13" transform="translate(235.41 215.49)"><tspan x="0" y="0">6</tspan></text>
            </g>
        </a>

        <a xlink:href="/games/3" target="_top">
            <g id="circ-num-3" onmouseover="activate(3)" onmouseout="deactivate(3)">
                <circle id="circ3" class="cls-4" cx="316.31" cy="356.54" r="25.25"/>
                <text class="cls-15" transform="translate(302.58 368.55)"><tspan x="0" y="0">3</tspan></text>
            </g>
        </a>

        <a xlink:href="/games/5" target="_top">
            <g id="circ-num-5" onmouseover="activate(5)" onmouseout="deactivate(5)">
                <circle id="circ5" class="cls-4" cx="291.31" cy="270.54" r="25.25"/>
                <text class="cls-15" transform="translate(276.05 282.55)"><tspan x="0" y="0">5</tspan></text>
            </g>
        </a>

        <a xlink:href="/games/7" target="_top">
            <g id="circ-num-7" onmouseover="activate(7)" onmouseout="deactivate(7)">
                <circle id="circ7" class="cls-4" cx="329.31" cy="138.54" r="25.25"/>
                <text class="cls-15" transform="translate(313.19 151.49)"><tspan x="0" y="0">7</tspan></text>
            </g>
        </a>

        <a xlink:href="/games/1" target="_top">
            <g id="circ-num-1" onmouseover="activate(1)" onmouseout="deactivate(1)">
                <circle id="circ1" class="cls-4" cx="130.31" cy="464.86" r="25.25"/>
                <text class="cls-15" transform="translate(120.83 477.5)"><tspan x="0" y="0">1</tspan></text>
            </g>
        </a>
    </g>
</svg>
