<?xml version="1.0" encoding="UTF-8"?>
<svg xmlns="http://www.w3.org/2000/svg" xmlns:xlink="http://www.w3.org/1999/xlink" viewBox="0 0 485.74 142">
    <defs>
        <style>
            .cls-1{stroke:#595959;}.cls-1,.cls-2,.cls-3,.cls-4,.cls-5,.cls-6{stroke-linejoin:round;}.cls-1,.cls-3,.cls-6{fill:none;}.cls-1,.cls-6{stroke-width:2px;}.cls-7{fill:#fff;}.cls-2{fill:#d2d5d8;}.cls-2,.cls-3,.cls-4,.cls-5{stroke:#000;}.cls-8{stroke-miterlimit:10;}.cls-8,.cls-6{stroke:#497adb;}.cls-8,.cls-9{fill:#8fefff;}.cls-4{fill:#595959;}.cls-10{fill:#9e9ed8;}.cls-11{fill:#f48a60;}.cls-5{fill:#383838;}
            #reservoir {  transform-origin: bottom center; }

        </style>
    </defs>
    <g id="syringe">
        <path class="cls-9" d="M284.73,92.08l-5.67-11.96c-.24-.54-.67-1.26-1.26-1.26l-137.32-.08-.23,39.58h137.54c.58,0,1.11-.34,1.35-.87l5.58-12.19,37.77-4.46v-4.39l-37.77-4.37Z"/>
        <g id="pusher">
            <rect class="cls-7" x="8.22" y="78.02" width="143.21" height="40.92" id="whiteblock"/>
            <g id="rubber">
                <polygon class="cls-2" points="140.73 79.76 8.31 79.76 8.31 69.86 2.64 73.12 2.64 97.64 2.64 99.1 2.64 123.62 8.31 126.87 8.31 116.98 140.73 116.98 140.73 79.76"/>
                <g>
                    <path class="cls-4" d="M141.76,80.85h9.14c.41,0,.78,.23,.94,.58l7.61,16.5c.11,.25,.11,.53,0,.78l-7.75,16.81c-.16,.35-.53,.58-.94,.58h-9c-.57,0-1.03-.43-1.03-.97v-33.31c0-.54,.46-.97,1.03-.97Z">
                    </path>
                    <rect class="cls-5" x="145.77" y="78.96" width="1.26" height="39.03"/>
                    <rect class="cls-5" x="140.73" y="78.96" width="1.26" height="39.03"/>
                    <rect class="cls-5" x="150.17" y="78.96" width="1.26" height="39.03"/>
                </g>
            </g>
        </g>
        <path class="cls-3" d="M279.82,118.94c-.19,.44-.62,.72-1.1,.72H139.79v-.06l-2.17,10.4h-2.64l-.11-63.27h2.64l2.28,10.91h138.94c.48,0,.91,.28,1.1,.72l5.58,12.71,37.11,4.41v6.32l-37.11,4.41-5.58,12.73Z"/>
    </g>
    <g id="phantom">
        <rect class="cls-10" x="65.5" y="3" width="35" height="40"/>
        <path class="cls-6" d="M280,43.5H22v-.03c-.17,0-.33,.03-.5,.03C10.18,43.5,1,34.32,1,23S10.18,2.5,21.5,2.5c.17,0,.33,.02,.5,.03l258-.03"/>
        <path id="reservoir" class="cls-9" d="M382.5,104h102v31.17c0,3.22-2.61,5.83-5.83,5.83h-90.34c-3.22,0-5.83-2.61-5.83-5.83v-31.17h0Z"/>
        <rect class="cls-11" x="279.5" width="26" height="46"/>
        <path class="cls-8" d="M411.5,121V20.07c0-1.7-1.38-3.07-3.07-3.07H30.25s-.35,0-.35,0h0c-5.1,0-8.4,2.35-8.4,6,0,4.08,4.34,5.53,8.4,5.53h.29c.13-.01,.25-.01,.38,0H353.5c2.21,0,4,1.79,4,4V98.37c0,2.2-1.78,3.99-3.98,4l-33,.13-.03-8,29.02-.12V39.29c0-1.53-1.24-2.76-2.76-2.76H30.25c-.05,0-.11,0-.16,0-.07,0-.13,0-.19,0-9.66,0-16.4-5.56-16.4-13.53,0-6.96,5.63-14,16.4-14,.13,0,.26,0,.39,.01H415.5c1.06-.01,2.08,.41,2.83,1.16,.75,.75,1.17,1.77,1.17,2.83V121"/>
        <path class="cls-1" d="M430,28h48.66c3.36,0,6.08,2.72,6.08,6.08v100.85c0,3.36-2.72,6.08-6.08,6.08h-90.09c-3.36,0-6.08-2.72-6.08-6.08V34.08c0-3.36,2.72-6.08,6.08-6.08h12.42"/>
    </g>

    <animateTransform
       id="animateSyringe"
       xlink:href="#pusher"
       attributeName="transform"
       attributeType="XML"
       type="translate"
       from="0 0"
       to="128 0"
       dur="4s"
       begin="indefinite"
       repeatCount="indefinite"
       fill="freeze">
       </animateTransform>

    <animateTransform
         id="animateReservoir"
         xlink:href="#reservoir"
         attributeName="transform"
         attributeType="XML"
         type="scale"
         from="1 1"
         to="1 2"
         begin="indefinite"
         dur="4s"
         repeatCount="indefinite"
         fill="freeze">
    </animateTransform>





</svg>