<?xml version="1.0" encoding="UTF-8"?>
<svg id="Layer_1" xmlns="http://www.w3.org/2000/svg"  viewBox="0 0 115.89 140.77">


    <defs>
        <style>.cls-1{fill:#4986c6;}</style>
    </defs>
    <path class="cls-1" d="M95.81,47.96H18.85c-1.52,0-2.76,1.14-2.76,2.56v57.3c0,1.41,1.23,2.56,2.76,2.56h12.48c1.52,0,2.76-1.14,2.76-2.56v-.22c0-1.41-1.23-2.56-2.76-2.56h0c-1.52,0-2.76-1.14-2.76-2.56V58.79c0-1.41,1.23-2.56,2.76-2.56h51.99c1.52,0,2.76,1.14,2.76,2.56v43.69c0,1.41-1.23,2.56-2.76,2.56h0c-1.52,0-2.76,1.14-2.76,2.56v.22c0,1.41,1.23,2.56,2.76,2.56h12.48c1.52,0,2.76-1.14,2.76-2.56V50.52c0-1.41-1.23-2.56-2.76-2.56Z"/><rect class="cls-1" x="14.11" y="31.42" width="86.56" height="14.68" rx="5.82" ry="5.82"/>
    <rect class="cls-1" x="14" y="14.71" width="86.56" height="14.68" rx="5.82" ry="5.82"/>
    <g>
        <path class="cls-1" d="M37.71,69.66h5.41l2.72,9.49c.67,2.23,1.13,4.28,1.81,6.53h.14c.69-2.25,1.17-4.3,1.81-6.53l2.67-9.49h5.22l-6.82,20.36h-6.14l-6.83-20.36Z"/>
        <path class="cls-1" d="M58.1,87.45l2.93-3.16c1.61,1.26,3.69,2.13,5.55,2.13,2.13,0,3.18-.76,3.18-1.96,0-1.28-1.28-1.69-3.26-2.42l-2.94-1.13c-2.34-.86-4.56-2.59-4.56-5.55,0-3.37,3.35-6.07,8.05-6.07,2.6,0,5.32,.92,7.27,2.67l-2.58,2.9c-1.49-1.03-2.9-1.59-4.69-1.59s-2.88,.66-2.88,1.83c0,1.25,1.48,1.7,3.45,2.41l2.88,1.05c2.76,1,4.48,2.66,4.48,5.54,0,3.38-3.13,6.31-8.52,6.31-2.94,0-6.07-1-8.37-2.94Z"/>
    </g>
    <path class="cls-1" d="M24.95,110.39c-4.89,0-8.86,3.97-8.86,8.86s3.97,8.86,8.86,8.86,8.86-3.97,8.86-8.86-3.97-8.86-8.86-8.86Zm0,14.43c-3.08,0-5.58-2.5-5.58-5.58s2.5-5.58,5.58-5.58,5.58,2.5,5.58,5.58-2.5,5.58-5.58,5.58Z"/>
    <path class="cls-1" d="M89.71,110.39c-4.89,0-8.86,3.97-8.86,8.86s3.97,8.86,8.86,8.86,8.86-3.97,8.86-8.86-3.97-8.86-8.86-8.86Zm0,14.43c-3.08,0-5.58-2.5-5.58-5.58s2.5-5.58,5.58-5.58,5.58,2.5,5.58,5.58-2.5,5.58-5.58,5.58Z"/></svg>